<?xml version="1.0" encoding="windows-1252"?>
<!-- Generator: Adobe Illustrator 16.0.0, SVG Export Plug-In . SVG Version: 6.00 Build 0)  -->
<!DOCTYPE svg PUBLIC "-//W3C//DTD SVG 1.1//EN" "http://www.w3.org/Graphics/SVG/1.1/DTD/svg11.dtd">
<svg version="1.1" id="Capa_1" xmlns="http://www.w3.org/2000/svg" xmlns:xlink="http://www.w3.org/1999/xlink" x="0px" y="0px" width="334.8px" height="334.8px" viewBox="0 0 334.8 334.8" style="enable-background:new 0 0 334.8 334.8;" xml:space="preserve">
<g>
	<path d="M292.006,124.098c-16.058-44.308-56.025-76.579-102.711-84.394c-0.775-0.285-1.604-0.501-2.542-0.557   c-0.591-0.031-1.202-0.026-1.793-0.053c-5.779-0.772-11.623-1.252-17.561-1.252c-55.767,0-106.078,35.158-124.601,86.255   C19.153,124.366,0,143.688,0,167.397c0,23.712,19.153,43.034,42.799,43.303c18.528,51.095,68.834,86.258,124.601,86.258   S273.48,261.806,292,210.7c23.646-0.269,42.8-19.591,42.8-43.303C334.8,143.688,315.652,124.372,292.006,124.098z M291.495,194.5   c-1.171,0-2.447-0.11-4.008-0.332l-6.893-1.018l-2.03,6.671c-14.533,47.65-60.244,80.937-111.159,80.937   c-50.923,0-96.633-33.286-111.159-80.937l-2.03-6.671l-6.896,1.018c-1.561,0.222-2.837,0.332-4.008,0.332   c-14.947,0-27.108-12.16-27.108-27.107c0-14.945,12.161-27.101,27.108-27.101c1.189,0,2.458,0.105,3.998,0.332l6.9,1.034   l2.036-6.682c9.856-32.308,34.053-57.969,64.47-71.17c-6.792,15.042,2.431,33.586,17.803,40.816   c19.156,9.015,50.143,10.191,63.221-9.416c5.891-8.836,0.653-20.008-6.471-26.057c-9.972-8.461-24.469-9.666-36.315-4.962   c-9.59,3.808-5.416,19.478,4.309,15.623c7.042-2.792,13.46-3.003,20.21,0.707c9.271,5.1,0.728,10.919-5.748,12.783   c-12.081,3.472-29.905,0.638-39.35-7.842c-11.923-10.703,3.436-22.848,12.938-26.172c10.305-3.61,21.635-4.409,32.54-4.014   c44.07,6.275,81.77,37.249,94.716,79.703l2.036,6.682l6.902-1.034c1.54-0.227,2.816-0.332,3.998-0.332   c14.944,0,27.105,12.155,27.105,27.101C318.611,182.34,306.445,194.5,291.495,194.5z"/>
	<path d="M127.802,156.371c-13.927,0-13.927,21.597,0,21.597S141.734,156.371,127.802,156.371z"/>
	<path d="M207.003,176.618c13.927,0,13.927-21.598,0-21.598S193.077,176.618,207.003,176.618z"/>
	<path d="M167.405,197.644c-17.566,0-31.854,14.285-31.854,31.846v8.101h63.711v-8.101   C199.251,211.929,184.965,197.644,167.405,197.644z M167.405,213.843c5.668,0,10.647,3.033,13.389,7.547h-26.786   C156.755,216.876,161.736,213.843,167.405,213.843z"/>
	<path d="M202.505,193.219v13.5c0,10.452,16.2,10.452,16.2,0v-13.5C218.706,182.772,202.505,182.772,202.505,193.219z"/>
</g>
<g>
</g>
<g>
</g>
<g>
</g>
<g>
</g>
<g>
</g>
<g>
</g>
<g>
</g>
<g>
</g>
<g>
</g>
<g>
</g>
<g>
</g>
<g>
</g>
<g>
</g>
<g>
</g>
<g>
</g>
</svg>