<?xml version="1.0" encoding="UTF-8" standalone="no"?>
<!-- Created with Inkscape (http://www.inkscape.org/) -->

<svg
   xmlns:dc="http://purl.org/dc/elements/1.1/"
   xmlns:cc="http://creativecommons.org/ns#"
   xmlns:rdf="http://www.w3.org/1999/02/22-rdf-syntax-ns#"
   xmlns:svg="http://www.w3.org/2000/svg"
   xmlns="http://www.w3.org/2000/svg"
   xmlns:sodipodi="http://sodipodi.sourceforge.net/DTD/sodipodi-0.dtd"
   xmlns:inkscape="http://www.inkscape.org/namespaces/inkscape"
   width="158.32666mm"
   height="163.97112mm"
   viewBox="0 0 560.99998 581.00001"
   id="svg3468"
   version="1.1"
   inkscape:version="0.91 r13725"
   sodipodi:docname="no.svg">
  <defs
     id="defs3470" />
  <sodipodi:namedview
     id="base"
     pagecolor="#ffffff"
     bordercolor="#666666"
     borderopacity="1.0"
     inkscape:pageopacity="0.0"
     inkscape:pageshadow="2"
     inkscape:zoom="0.35"
     inkscape:cx="-107.35798"
     inkscape:cy="371.92882"
     inkscape:document-units="px"
     inkscape:current-layer="layer1"
     showgrid="false"
     inkscape:window-width="1536"
     inkscape:window-height="803"
     inkscape:window-x="-8"
     inkscape:window-y="-8"
     inkscape:window-maximized="1"
     fit-margin-top="0"
     fit-margin-left="0"
     fit-margin-right="0"
     fit-margin-bottom="0" />
  <metadata
     id="metadata3473">
    <rdf:RDF>
      <cc:Work
         rdf:about="">
        <dc:format>image/svg+xml</dc:format>
        <dc:type
           rdf:resource="http://purl.org/dc/dcmitype/StillImage" />
        <dc:title></dc:title>
      </cc:Work>
    </rdf:RDF>
  </metadata>
  <g
     inkscape:label="Ebene 1"
     inkscape:groupmode="layer"
     id="layer1"
     transform="translate(-168.07227,-323.29102)">
    <path
       style="fill:#ff0000;fill-opacity:1;fill-rule:evenodd;stroke:#000000;stroke-width:1px;stroke-linecap:butt;stroke-linejoin:miter;stroke-opacity:1"
       d="M 303.71429,801.79077 C 416.09524,689.40982 528.47619,577.02887 640.85714,464.64792 630.22833,446.23827 619.59951,427.82863 608.9707,409.41898 488.41362,529.97606 367.85654,650.53315 247.29946,771.09023 c 18.80494,10.23351 37.60989,20.46703 56.41483,30.70054 z"
       id="path3490"
       inkscape:connector-curvature="0" />
    <path
       style="fill:#ff0000;fill-rule:evenodd;stroke:#000000;stroke-width:1px;stroke-linecap:butt;stroke-linejoin:miter;stroke-opacity:1"
       d="m 448.57227,323.79102 a 280,290 0 0 0 -280,290 280,290 0 0 0 280,290 280,290 0 0 0 280,-290 280,290 0 0 0 -280,-290 z m 0,45.63476 a 235.93803,244.3644 0 0 1 23.55273,1.2207 235.93803,244.3644 0 0 1 23.32031,3.6504 235.93803,244.3644 0 0 1 22.84961,6.04296 235.93803,244.3644 0 0 1 22.1543,8.37696 235.93803,244.3644 0 0 1 21.23633,10.625 235.93803,244.3644 0 0 1 20.10742,12.76562 235.93803,244.3644 0 0 1 18.77344,14.7832 235.93803,244.3644 0 0 1 17.25586,16.6504 235.93803,244.3644 0 0 1 15.5664,18.3496 235.93803,244.3644 0 0 1 13.71875,19.86915 235.93803,244.3644 0 0 1 11.73438,21.1875 235.93803,244.3644 0 0 1 9.63281,22.29687 235.93803,244.3644 0 0 1 7.4375,23.17969 235.93803,244.3644 0 0 1 5.16406,23.83398 235.93803,244.3644 0 0 1 2.8418,24.24805 235.93803,244.3644 0 0 1 0.5918,17.28516 235.93803,244.3644 0 0 1 -1.17969,24.39453 235.93803,244.3644 0 0 1 -3.52344,24.15234 235.93803,244.3644 0 0 1 -5.83594,23.66797 235.93803,244.3644 0 0 1 -8.08593,22.94531 235.93803,244.3644 0 0 1 -10.25782,21.99414 235.93803,244.3644 0 0 1 -12.32812,20.82422 235.93803,244.3644 0 0 1 -14.27149,19.44531 235.93803,244.3644 0 0 1 -16.07617,17.87305 235.93803,244.3644 0 0 1 -17.71875,16.11914 235.93803,244.3644 0 0 1 -19.18359,14.20899 235.93803,244.3644 0 0 1 -20.45703,12.15429 235.93803,244.3644 0 0 1 -21.52735,9.97852 235.93803,244.3644 0 0 1 -22.3789,7.70117 235.93803,244.3644 0 0 1 -23.01172,5.34961 235.93803,244.3644 0 0 1 -23.41211,2.94336 235.93803,244.3644 0 0 1 -16.68945,0.61133 235.93803,244.3644 0 0 1 -23.55469,-1.22071 235.93803,244.3644 0 0 1 -23.32031,-3.65039 235.93803,244.3644 0 0 1 -22.84961,-6.04297 235.93803,244.3644 0 0 1 -22.1543,-8.375 235.93803,244.3644 0 0 1 -21.23633,-10.625 235.93803,244.3644 0 0 1 -20.10547,-12.76757 235.93803,244.3644 0 0 1 -18.77539,-14.78125 235.93803,244.3644 0 0 1 -17.25586,-16.65039 235.93803,244.3644 0 0 1 -15.5664,-18.35157 235.93803,244.3644 0 0 1 -13.7168,-19.86718 235.93803,244.3644 0 0 1 -11.73633,-21.18946 235.93803,244.3644 0 0 1 -9.63281,-22.29492 235.93803,244.3644 0 0 1 -7.4375,-23.17969 235.93803,244.3644 0 0 1 -5.16406,-23.83398 235.93803,244.3644 0 0 1 -2.8418,-24.24805 235.93803,244.3644 0 0 1 -0.5918,-17.28515 235.93803,244.3644 0 0 1 1.17969,-24.39649 235.93803,244.3644 0 0 1 3.52344,-24.15234 235.93803,244.3644 0 0 1 5.83594,-23.66602 235.93803,244.3644 0 0 1 8.08593,-22.94531 235.93803,244.3644 0 0 1 10.25781,-21.99414 235.93803,244.3644 0 0 1 12.32813,-20.82422 235.93803,244.3644 0 0 1 14.27148,-19.44531 235.93803,244.3644 0 0 1 16.07618,-17.87305 235.93803,244.3644 0 0 1 17.71875,-16.12109 235.93803,244.3644 0 0 1 19.18359,-14.20703 235.93803,244.3644 0 0 1 20.45703,-12.1543 235.93803,244.3644 0 0 1 21.52734,-9.97852 235.93803,244.3644 0 0 1 22.38086,-7.70117 235.93803,244.3644 0 0 1 23.01172,-5.34961 235.93803,244.3644 0 0 1 23.41211,-2.94336 235.93803,244.3644 0 0 1 16.68946,-0.61328 z"
       id="path3476"
       inkscape:connector-curvature="0" />
  </g>
</svg>
