<?xml version="1.0" encoding="UTF-8" standalone="no"?>
<!-- Created with Inkscape (http://www.inkscape.org/) -->

<svg
   xmlns:dc="http://purl.org/dc/elements/1.1/"
   xmlns:cc="http://creativecommons.org/ns#"
   xmlns:rdf="http://www.w3.org/1999/02/22-rdf-syntax-ns#"
   xmlns:svg="http://www.w3.org/2000/svg"
   xmlns="http://www.w3.org/2000/svg"
   xmlns:sodipodi="http://sodipodi.sourceforge.net/DTD/sodipodi-0.dtd"
   xmlns:inkscape="http://www.inkscape.org/namespaces/inkscape"
   width="210mm"
   height="297mm"
   viewBox="0 0 744.09448819 1052.3622047"
   id="svg3468"
   version="1.1"
   inkscape:version="0.91 r13725"
   sodipodi:docname="no_really.svg">
  <defs
     id="defs3470" />
  <sodipodi:namedview
     id="base"
     pagecolor="#ffffff"
     bordercolor="#666666"
     borderopacity="1.0"
     inkscape:pageopacity="0.0"
     inkscape:pageshadow="2"
     inkscape:zoom="0.98994949"
     inkscape:cx="524.40524"
     inkscape:cy="651.22166"
     inkscape:document-units="px"
     inkscape:current-layer="layer1"
     showgrid="false"
     inkscape:window-width="1536"
     inkscape:window-height="803"
     inkscape:window-x="-8"
     inkscape:window-y="-8"
     inkscape:window-maximized="1" />
  <metadata
     id="metadata3473">
    <rdf:RDF>
      <cc:Work
         rdf:about="">
        <dc:format>image/svg+xml</dc:format>
        <dc:type
           rdf:resource="http://purl.org/dc/dcmitype/StillImage" />
        <dc:title></dc:title>
      </cc:Work>
    </rdf:RDF>
  </metadata>
  <g
     inkscape:label="Ebene 1"
     inkscape:groupmode="layer"
     id="layer1">
    <path
       style="fill:#ff0000;fill-opacity:1;fill-rule:evenodd;stroke:#000000;stroke-width:1px;stroke-linecap:butt;stroke-linejoin:miter;stroke-opacity:1"
       d="M 233.14286,621.79078 570.28571,284.64793 518.39927,212.27613 156.72803,573.94738 Z"
       id="path3490"
       inkscape:connector-curvature="0"
       sodipodi:nodetypes="ccccc" />
    <path
       style="fill:#ff0000;fill-rule:evenodd;stroke:#000000;stroke-width:1px;stroke-linecap:butt;stroke-linejoin:miter;stroke-opacity:1"
       d="m 371.42941,129.50531 a 280,290 0 0 0 -279.999997,290 280,290 0 0 0 279.999997,290 280,290 0 0 0 280,-290 280,290 0 0 0 -280,-290 z m 0,45.63476 a 235.93803,244.3644 0 0 1 23.55273,1.2207 235.93803,244.3644 0 0 1 23.32031,3.6504 235.93803,244.3644 0 0 1 22.84961,6.04296 235.93803,244.3644 0 0 1 22.1543,8.37696 235.93803,244.3644 0 0 1 21.23633,10.625 235.93803,244.3644 0 0 1 20.10742,12.76562 235.93803,244.3644 0 0 1 18.77344,14.7832 235.93803,244.3644 0 0 1 17.25586,16.6504 235.93803,244.3644 0 0 1 15.5664,18.3496 235.93803,244.3644 0 0 1 13.71875,19.86915 235.93803,244.3644 0 0 1 11.73438,21.1875 235.93803,244.3644 0 0 1 9.63281,22.29687 235.93803,244.3644 0 0 1 7.4375,23.17969 235.93803,244.3644 0 0 1 5.16406,23.83398 235.93803,244.3644 0 0 1 2.8418,24.24805 235.93803,244.3644 0 0 1 0.5918,17.28516 235.93803,244.3644 0 0 1 -1.17969,24.39453 235.93803,244.3644 0 0 1 -3.52344,24.15234 235.93803,244.3644 0 0 1 -5.83594,23.66797 235.93803,244.3644 0 0 1 -8.08593,22.94531 235.93803,244.3644 0 0 1 -10.25782,21.99414 235.93803,244.3644 0 0 1 -12.32812,20.82422 235.93803,244.3644 0 0 1 -14.27149,19.44531 235.93803,244.3644 0 0 1 -16.07617,17.87305 235.93803,244.3644 0 0 1 -17.71875,16.11914 235.93803,244.3644 0 0 1 -19.18359,14.20899 235.93803,244.3644 0 0 1 -20.45703,12.15429 235.93803,244.3644 0 0 1 -21.52735,9.97852 235.93803,244.3644 0 0 1 -22.3789,7.70117 235.93803,244.3644 0 0 1 -23.01172,5.34961 235.93803,244.3644 0 0 1 -23.41211,2.94336 235.93803,244.3644 0 0 1 -16.68945,0.61133 235.93803,244.3644 0 0 1 -23.55469,-1.22071 235.93803,244.3644 0 0 1 -23.32031,-3.65039 235.93803,244.3644 0 0 1 -22.84961,-6.04297 235.93803,244.3644 0 0 1 -22.1543,-8.375 235.93803,244.3644 0 0 1 -21.23633,-10.625 235.93803,244.3644 0 0 1 -20.10547,-12.76757 235.93803,244.3644 0 0 1 -18.77539,-14.78125 235.93803,244.3644 0 0 1 -17.25586,-16.65039 235.93803,244.3644 0 0 1 -15.5664,-18.35157 235.93803,244.3644 0 0 1 -13.7168,-19.86718 235.93803,244.3644 0 0 1 -11.73633,-21.18946 235.93803,244.3644 0 0 1 -9.63281,-22.29492 235.93803,244.3644 0 0 1 -7.4375,-23.17969 235.93803,244.3644 0 0 1 -5.16406,-23.83398 235.93803,244.3644 0 0 1 -2.8418,-24.24805 235.93803,244.3644 0 0 1 -0.5918,-17.28515 235.93803,244.3644 0 0 1 1.17969,-24.39649 235.93803,244.3644 0 0 1 3.52344,-24.15234 235.93803,244.3644 0 0 1 5.83594,-23.66602 235.93803,244.3644 0 0 1 8.08593,-22.94531 235.93803,244.3644 0 0 1 10.25781,-21.99414 235.93803,244.3644 0 0 1 12.32813,-20.82422 235.93803,244.3644 0 0 1 14.27148,-19.44531 235.93803,244.3644 0 0 1 16.07618,-17.87305 235.93803,244.3644 0 0 1 17.71875,-16.12109 235.93803,244.3644 0 0 1 19.18359,-14.20703 235.93803,244.3644 0 0 1 20.45703,-12.1543 235.93803,244.3644 0 0 1 21.52734,-9.97852 235.93803,244.3644 0 0 1 22.38086,-7.70117 235.93803,244.3644 0 0 1 23.01172,-5.34961 235.93803,244.3644 0 0 1 23.41211,-2.94336 235.93803,244.3644 0 0 1 16.68946,-0.61328 z"
       id="path3476"
       inkscape:connector-curvature="0" />
    <text
       xml:space="preserve"
       style="font-style:normal;font-weight:normal;font-size:40px;line-height:125%;font-family:sans-serif;letter-spacing:0px;word-spacing:0px;fill:#000000;fill-opacity:1;stroke:none;stroke-width:1px;stroke-linecap:butt;stroke-linejoin:miter;stroke-opacity:1"
       x="-148.13791"
       y="586.70709"
       id="text3493"
       sodipodi:linespacing="125%"
       transform="matrix(0.70710678,-0.70710678,0.70710678,0.70710678,0,0)"><tspan
         sodipodi:role="line"
         id="tspan3495"
         x="-148.13791"
         y="586.70709"
         style="font-size:75px">Really?</tspan></text>
  </g>
</svg>
